<?xml version="1.0" encoding="utf-8"?>
<!-- Generator: Adobe Illustrator 25.0.1, SVG Export Plug-In . SVG Version: 6.00 Build 0)  -->
<svg version="1.1" id="Layer_1" xmlns="http://www.w3.org/2000/svg" xmlns:xlink="http://www.w3.org/1999/xlink" x="0px" y="0px"
	 viewBox="0 0 144.8 35.7" style="enable-background:new 0 0 144.8 35.7;" xml:space="preserve">
<style type="text/css">
	.st0{fill:#FFFFFF;}
</style>
<g>
	<path class="st0" d="M0,0.7h9.7v26.6h16.4V35H0V0.7z"/>
	<path class="st0" d="M27.6,17.8C27.6,7.5,35.7,0,46.6,0s19.1,7.5,19.1,17.8c0,10.3-8.1,17.8-19.1,17.8S27.6,28.1,27.6,17.8z
		 M55.9,17.8c0-5.9-4.1-9.8-9.3-9.8c-5.2,0-9.3,3.9-9.3,9.8c0,5.9,4.1,9.8,9.3,9.8C51.8,27.6,55.9,23.8,55.9,17.8z"/>
	<path class="st0" d="M93.7,17.1h8.6v14.2c-4,2.8-9.4,4.4-14.4,4.4C77,35.7,69,28.3,69,17.8C69,7.4,77,0,88.1,0
		c6.4,0,11.6,2.2,15,6.3l-6.2,5.6c-2.4-2.6-5-3.8-8.3-3.8c-5.9,0-9.8,3.9-9.8,9.8c0,5.8,3.9,9.8,9.7,9.8c1.8,0,3.5-0.3,5.2-1.1V17.1
		z"/>
	<path class="st0" d="M106.7,17.8c0-10.3,8.1-17.8,19.1-17.8s19.1,7.5,19.1,17.8c0,10.3-8.1,17.8-19.1,17.8S106.7,28.1,106.7,17.8z
		 M135,17.8c0-5.9-4.1-9.8-9.3-9.8c-5.2,0-9.3,3.9-9.3,9.8c0,5.9,4.1,9.8,9.3,9.8C131,27.6,135,23.8,135,17.8z"/>
</g>
</svg>
